<svg width="86" height="49" viewBox="0 0 86 49" fill="none" xmlns="http://www.w3.org/2000/svg">
<path d="M11.6953 17.7539H8.89453V24H5.37891V6.9375H11.7188C13.7344 6.9375 15.2891 7.38672 16.3828 8.28516C17.4766 9.18359 18.0234 10.4531 18.0234 12.0938C18.0234 13.2578 17.7695 14.2305 17.2617 15.0117C16.7617 15.7852 16 16.4023 14.9766 16.8633L18.668 23.8359V24H14.8945L11.6953 17.7539ZM8.89453 14.9062H11.7305C12.6133 14.9062 13.2969 14.6836 13.7812 14.2383C14.2656 13.7852 14.5078 13.1641 14.5078 12.375C14.5078 11.5703 14.2773 10.9375 13.8164 10.4766C13.3633 10.0156 12.6641 9.78516 11.7188 9.78516H8.89453V14.9062ZM26.2266 24.2344C24.4219 24.2344 22.957 23.668 21.832 22.5352C20.7148 21.3945 20.1562 19.8789 20.1562 17.9883V17.6367C20.1562 16.3711 20.3984 15.2422 20.8828 14.25C21.375 13.25 22.0625 12.4727 22.9453 11.918C23.8281 11.3633 24.8125 11.0859 25.8984 11.0859C27.625 11.0859 28.957 11.6367 29.8945 12.7383C30.8398 13.8398 31.3125 15.3984 31.3125 17.4141V18.5625H23.0273C23.1133 19.6094 23.4609 20.4375 24.0703 21.0469C24.6875 21.6562 25.4609 21.9609 26.3906 21.9609C27.6953 21.9609 28.7578 21.4336 29.5781 20.3789L31.1133 21.8438C30.6055 22.6016 29.9258 23.1914 29.0742 23.6133C28.2305 24.0273 27.2812 24.2344 26.2266 24.2344ZM25.8867 13.3711C25.1055 13.3711 24.4727 13.6445 23.9883 14.1914C23.5117 14.7383 23.207 15.5 23.0742 16.4766H28.5V16.2656C28.4375 15.3125 28.1836 14.5938 27.7383 14.1094C27.293 13.6172 26.6758 13.3711 25.8867 13.3711ZM36.5742 21.7266H43.3242V24H33.0352V22.1367L39.4688 13.6172H33.1523V11.3203H43.0781V13.125L36.5742 21.7266Z" fill="#0070BA"/>
<path d="M42.9922 41V23.9375H48.9688C51.0391 23.9375 52.6094 24.3359 53.6797 25.1328C54.75 25.9219 55.2852 27.082 55.2852 28.6133C55.2852 29.4492 55.0703 30.1875 54.6406 30.8281C54.2109 31.4609 53.6133 31.9258 52.8477 32.2227C53.7227 32.4414 54.4102 32.8828 54.9102 33.5469C55.418 34.2109 55.6719 35.0234 55.6719 35.9844C55.6719 37.625 55.1484 38.8672 54.1016 39.7109C53.0547 40.5547 51.5625 40.9844 49.625 41H42.9922ZM46.5078 33.5703V38.1758H49.5195C50.3477 38.1758 50.9922 37.9805 51.4531 37.5898C51.9219 37.1914 52.1562 36.6445 52.1562 35.9492C52.1562 34.3867 51.3477 33.5938 49.7305 33.5703H46.5078ZM46.5078 31.0859H49.1094C50.8828 31.0547 51.7695 30.3477 51.7695 28.9648C51.7695 28.1914 51.543 27.6367 51.0898 27.3008C50.6445 26.957 49.9375 26.7852 48.9688 26.7852H46.5078V31.0859ZM65.9375 39.7578C65.1016 40.7422 63.9141 41.2344 62.375 41.2344C61 41.2344 59.957 40.832 59.2461 40.0273C58.543 39.2227 58.1914 38.0586 58.1914 36.5352V28.3203H61.0391V36.5C61.0391 38.1094 61.707 38.9141 63.043 38.9141C64.4258 38.9141 65.3594 38.418 65.8438 37.4258V28.3203H68.6914V41H66.0078L65.9375 39.7578ZM78.6992 37.5547C78.6992 37.0469 78.4883 36.6602 78.0664 36.3945C77.6523 36.1289 76.9609 35.8945 75.9922 35.6914C75.0234 35.4883 74.2148 35.2305 73.5664 34.918C72.1445 34.2305 71.4336 33.2344 71.4336 31.9297C71.4336 30.8359 71.8945 29.9219 72.8164 29.1875C73.7383 28.4531 74.9102 28.0859 76.332 28.0859C77.8477 28.0859 79.0703 28.4609 80 29.2109C80.9375 29.9609 81.4062 30.9336 81.4062 32.1289H78.5586C78.5586 31.582 78.3555 31.1289 77.9492 30.7695C77.543 30.4023 77.0039 30.2188 76.332 30.2188C75.707 30.2188 75.1953 30.3633 74.7969 30.6523C74.4062 30.9414 74.2109 31.3281 74.2109 31.8125C74.2109 32.25 74.3945 32.5898 74.7617 32.832C75.1289 33.0742 75.8711 33.3203 76.9883 33.5703C78.1055 33.8125 78.9805 34.1055 79.6133 34.4492C80.2539 34.7852 80.7266 35.1914 81.0312 35.668C81.3438 36.1445 81.5 36.7227 81.5 37.4023C81.5 38.543 81.0273 39.4688 80.082 40.1797C79.1367 40.8828 77.8984 41.2344 76.3672 41.2344C75.3281 41.2344 74.4023 41.0469 73.5898 40.6719C72.7773 40.2969 72.1445 39.7812 71.6914 39.125C71.2383 38.4688 71.0117 37.7617 71.0117 37.0039H73.7773C73.8164 37.6758 74.0703 38.1953 74.5391 38.5625C75.0078 38.9219 75.6289 39.1016 76.4023 39.1016C77.1523 39.1016 77.7227 38.9609 78.1133 38.6797C78.5039 38.3906 78.6992 38.0156 78.6992 37.5547Z" fill="#E91E63"/>
</svg>
